<svg xmlns="http://www.w3.org/2000/svg" fill="none" viewBox="0 0 177 70" height="70" width="177">
<path fill="#FAC828" d="M133.797 65.6128C118.529 66.3626 103.795 67.5921 96.2313 68.7475C95.2614 68.8956 94.2923 68.4777 94.0668 67.814C93.8412 67.1503 94.4446 66.4922 95.4145 66.344C103.247 65.1476 118.197 63.9083 133.506 63.1566C146.844 62.5016 160.626 62.2077 170.344 62.6558C170.353 62.655 170.361 62.6544 170.369 62.6538C170.503 62.6433 170.633 62.6399 170.74 62.639C170.955 62.6372 171.194 62.6449 171.421 62.6555C171.882 62.6772 172.423 62.7176 172.907 62.7585C173.396 62.7997 173.851 62.8435 174.15 62.8745C174.29 62.8889 174.423 62.9033 174.507 62.9142L174.509 62.9144C174.524 62.9164 174.581 62.9236 174.644 62.9346C174.663 62.9379 174.701 62.9448 174.748 62.955L174.751 62.9555C174.775 62.9606 174.917 62.991 175.079 63.0519L175.084 63.0538C175.138 63.0739 175.447 63.1886 175.694 63.4297C175.827 63.5808 176.007 63.9795 176.018 64.2217C175.955 64.4729 175.662 64.8768 175.468 65.0247C175.113 65.2558 174.716 65.3172 174.656 65.3265C174.654 65.3268 174.651 65.3273 174.651 65.3273C174.529 65.3471 174.431 65.3536 174.389 65.3561C174.297 65.3615 174.225 65.3608 174.201 65.3605C174.168 65.3602 174.141 65.3592 174.125 65.3586C174.092 65.3573 174.065 65.3557 174.05 65.3548C174.018 65.3527 173.986 65.3503 173.961 65.3483C172.86 65.2603 171.672 65.1862 170.406 65.1254C170.377 65.1245 170.348 65.1231 170.319 65.1213C160.892 64.6741 147.226 64.9534 133.797 65.6128Z" clip-rule="evenodd" fill-rule="evenodd"></path>
<path fill="#FAC828" d="M172.576 66.2909C174.136 66.3086 175.409 65.6563 175.418 64.8339C175.427 64.0115 174.17 63.3305 172.61 63.3128C171.05 63.2951 169.778 63.9474 169.768 64.7698C169.759 65.5922 171.016 66.2732 172.576 66.2909Z"></path>
<path fill="#0D1F22" d="M8.12826 22.0721V27.4481C8.12826 29.2401 8.99226 29.6561 11.9683 29.8481V31.0001H0.864258V29.8801C3.10426 29.6241 3.42426 29.4321 3.42426 27.6721V11.8641C3.42426 10.1041 3.10426 9.91209 0.864258 9.65609V8.53609H10.6563C16.6723 8.53609 19.4883 11.5441 19.4883 15.1921C19.4883 19.3841 16.5763 22.0721 10.5923 22.0721H8.12826ZM8.12826 9.81609V20.6961H9.50426C13.0563 20.6961 14.6883 18.6801 14.6883 15.2881C14.6883 12.0881 12.9603 9.81609 9.50426 9.81609H8.12826ZM29.127 30.1681C31.4951 30.1681 32.5511 27.4481 32.5511 23.2561C32.5511 18.5201 31.4631 14.9041 28.9031 14.9041C26.535 14.9041 25.4471 17.5921 25.4471 21.7841C25.4471 26.5201 26.5671 30.1681 29.127 30.1681ZM28.9671 31.3201C24.071 31.3201 20.743 27.9921 20.743 22.9041C20.743 17.4641 24.295 13.7201 29.063 13.7201C33.9591 13.7201 37.2871 17.1121 37.2871 22.1681C37.2871 27.6081 33.7351 31.3201 28.9671 31.3201ZM45.4005 19.4481V28.2801C45.4005 29.5921 46.1365 29.7841 48.1205 29.9441V31.0001H38.9685V29.9441C40.4725 29.8481 40.9845 29.6561 40.9845 28.5361V17.2081L39.0645 16.0881V15.4801L44.7925 13.7201H45.5285L45.4005 18.4561C46.9365 14.9681 47.8965 13.7201 49.7846 13.7201C50.4566 13.7201 50.9365 13.9441 51.1926 14.2641V17.7201H50.5845C48.6006 17.7201 47.0325 17.8161 45.4005 19.4481ZM56.3808 21.2401C56.3808 25.4321 58.3008 28.1521 61.5328 28.1521C63.5488 28.1521 64.9568 27.3521 66.0128 25.7841L66.5568 26.1041C65.5648 29.5921 63.1968 31.3201 59.9328 31.3201C55.6448 31.3201 52.4768 28.1201 52.4768 23.0961C52.4768 17.7521 55.7088 13.7201 60.7648 13.7201C63.9008 13.7201 66.0768 15.0001 66.0768 17.4641C66.0768 18.4881 65.5328 19.2881 64.8608 19.6081H62.4288C62.4928 19.0961 62.5568 18.6161 62.5568 18.0401C62.5568 16.3441 62.0128 14.9361 60.2208 14.9361C57.7888 14.9361 56.3808 17.6881 56.3808 21.2401ZM75.8265 13.7201C80.1145 13.7201 82.3545 16.5681 82.3545 20.4081V21.1441H71.9225C71.7945 25.6241 74.0985 28.2801 77.2345 28.2801C79.4105 28.2801 80.8505 27.3521 82.0025 25.6881L82.5145 25.9761C81.6825 29.1441 79.3465 31.3201 75.6665 31.3201C71.0265 31.3201 67.9225 27.8961 67.9225 22.9681C67.9225 17.4961 71.4425 13.7201 75.8265 13.7201ZM75.5065 14.9041C73.3945 14.9041 72.2425 17.0161 71.9865 19.9601H78.3865C78.3865 16.9521 77.5865 14.9041 75.5065 14.9041ZM90.3903 5.94409V28.5361C90.3903 29.6561 90.9023 29.8481 92.3743 29.9441V31.0001H83.9583V29.9441C85.4303 29.8481 85.9423 29.6561 85.9423 28.5361V9.14409L84.0223 8.15209V7.48009L89.6863 5.94409H90.3903ZM100.658 28.7601C101.586 28.7601 102.226 28.4081 103.122 27.7361V21.7521L100.37 22.8721C99.0263 23.3841 98.1943 24.1201 98.1943 25.9121C98.1943 27.5761 98.9623 28.7601 100.658 28.7601ZM107.538 18.9681V27.4481C107.538 28.5361 107.762 29.2401 108.594 29.2401C109.074 29.2401 109.522 29.0801 109.874 28.9201L110.066 29.6241C109.138 30.7121 107.922 31.3201 106.418 31.3201C104.69 31.3201 103.538 30.2641 103.218 28.5041C102.194 29.8481 100.53 31.2561 98.2263 31.2561C95.6343 31.2561 93.9063 29.6881 93.9063 27.1281C93.9063 24.3761 95.8903 23.2561 98.2903 22.3601L103.122 20.6001V17.8801C103.122 16.0561 102.514 14.7441 100.85 14.7441C99.3143 14.7441 98.7063 15.8961 98.7063 17.4321C98.7063 18.0721 98.8023 18.7121 98.9623 19.4161L96.3063 19.7681C95.4423 19.4801 94.8983 18.8081 94.8983 17.7521C94.8983 15.0961 97.6503 13.7201 101.202 13.7201C105.298 13.7201 107.538 15.2241 107.538 18.9681ZM117.375 13.7201V28.5361C117.375 29.6561 117.887 29.8481 119.391 29.9441V31.0001H110.943V29.9441C112.447 29.8481 112.959 29.6561 112.959 28.5361V17.2081L111.039 16.0881V15.4801L116.671 13.7201H117.375ZM115.103 11.8001C113.567 11.8001 112.511 10.6161 112.511 9.27209C112.511 7.89609 113.567 6.74409 115.103 6.74409C116.671 6.74409 117.727 7.89609 117.727 9.27209C117.727 10.6161 116.671 11.8001 115.103 11.8001ZM133.337 28.5361V19.1921C133.337 17.3361 132.633 16.4081 130.873 16.4081C129.529 16.4081 128.313 17.0161 127.289 17.7201V28.5361C127.289 29.6561 127.769 29.8481 129.241 29.9441V31.0001H120.857V29.9441C122.361 29.8481 122.873 29.6561 122.873 28.5361V17.2081L120.953 16.0881V15.4801L126.681 13.7201H127.417L127.289 16.8561C128.665 15.2561 130.489 13.7201 133.209 13.7201C136.217 13.7201 137.785 15.4481 137.785 18.9361V28.5361C137.785 29.6561 138.297 29.8481 139.769 29.9441V31.0001H131.385V29.9441C132.857 29.8481 133.337 29.6561 133.337 28.5361Z"></path>
<path fill="#0D1F22" d="M17.352 56.3201C14.312 56.3201 11.688 55.3921 10.248 54.2081L9.95996 48.7361H11.304C12.072 52.5441 14.12 55.0401 17.352 55.0401C19.944 55.0401 21.576 53.6321 21.576 51.4241C21.576 49.0561 20.2 48.0641 16.36 46.6561C12.584 45.3441 10.152 43.6161 10.152 39.8401C10.152 35.9361 13.128 33.2161 17.608 33.2161C20.296 33.2161 22.696 33.9521 24.264 35.1041V39.8721H23.08C22.472 36.4801 20.648 34.4961 17.608 34.4961C15.368 34.4961 13.96 35.8721 13.96 37.8881C13.96 40.1281 15.176 41.0561 18.6 42.3041C22.888 43.8401 25.48 45.5041 25.48 49.5361C25.48 54.0161 21.8 56.3201 17.352 56.3201ZM43.6818 42.4961V52.6081C43.6818 53.6961 43.7458 54.0481 44.9618 54.1441L45.7618 54.2081V55.1681L39.9377 56.3201H39.1378L39.2338 53.2481C37.8898 54.7521 36.1938 56.3201 33.6658 56.3201C30.8497 56.3201 29.0257 54.7201 29.0257 51.1361V42.8161C29.0257 41.7601 28.8017 41.2481 27.5537 41.0241L27.0417 40.9281V39.9681L32.9297 38.7521H33.6337L33.4738 42.5601V50.5601C33.4738 52.5121 34.2098 53.6641 35.9698 53.6641C37.2498 53.6641 38.2098 53.1201 39.2338 52.4481V42.8161C39.2338 41.7601 39.0098 41.2481 37.7618 41.0241L37.2817 40.9281V39.9681L43.1058 38.7521H43.8097L43.6818 42.4961ZM56.2125 55.1041C58.9325 55.1041 60.5645 52.0001 60.5645 48.0641C60.5645 44.1281 59.1245 41.4081 56.1165 41.4081C55.0605 41.4081 54.0365 41.8561 53.3005 42.5281V51.4241C53.3005 53.8561 54.2605 55.1041 56.2125 55.1041ZM48.8525 60.3201V42.2081L46.9325 41.0881V40.4801L52.6605 38.7201H53.4285L53.3005 41.7281C54.3565 40.1281 56.1165 38.7201 58.6765 38.7201C62.5805 38.7201 65.0445 41.5681 65.0445 46.4961C65.0445 52.7681 61.2685 56.3201 56.5005 56.3201C55.1885 56.3201 54.0045 56.0321 53.3005 55.4241V60.2241C53.3005 61.4401 53.9085 61.5681 55.9245 61.7281V62.7841H46.8685V61.7281C48.3405 61.6321 48.8525 61.4401 48.8525 60.3201ZM75.0375 38.7201C79.3255 38.7201 81.5655 41.5681 81.5655 45.4081V46.1441H71.1335C71.0055 50.6241 73.3095 53.2801 76.4455 53.2801C78.6215 53.2801 80.0615 52.3521 81.2135 50.6881L81.7255 50.9761C80.8935 54.1441 78.5575 56.3201 74.8775 56.3201C70.2375 56.3201 67.1335 52.8961 67.1335 47.9681C67.1335 42.4961 70.6535 38.7201 75.0375 38.7201ZM74.7175 39.9041C72.6055 39.9041 71.4535 42.0161 71.1975 44.9601H77.5975C77.5975 41.9521 76.7975 39.9041 74.7175 39.9041ZM89.6652 44.4481V53.2801C89.6652 54.5921 90.4012 54.7841 92.3852 54.9441V56.0001H83.2332V54.9441C84.7372 54.8481 85.2492 54.6561 85.2492 53.5361V42.2081L83.3292 41.0881V40.4801L89.0572 38.7201H89.7932L89.6652 43.4561C91.2012 39.9681 92.1612 38.7201 94.0492 38.7201C94.7212 38.7201 95.2012 38.9441 95.4572 39.2641V42.7201H94.8492C92.8652 42.7201 91.2972 42.8161 89.6652 44.4481ZM103.077 56.3201C100.645 56.3201 98.6295 55.6801 97.3175 54.7201L97.1255 50.3361H98.3095C99.0135 53.1201 100.645 55.2001 103.109 55.2001C104.837 55.2001 106.149 54.3681 106.149 52.6081C106.149 50.8801 104.965 50.2081 102.437 49.3121C99.0135 48.1281 97.2535 46.7841 97.2535 43.8081C97.2535 40.6081 99.6855 38.7201 103.205 38.7201C105.285 38.7201 107.077 39.2641 108.421 40.1281V44.0001H107.333C106.821 41.6961 105.477 39.8401 103.205 39.8401C101.573 39.8401 100.613 40.8001 100.613 42.1761C100.613 43.6481 101.605 44.3521 104.069 45.2481C107.557 46.4641 109.573 47.7761 109.573 50.9121C109.573 54.3361 107.013 56.3201 103.077 56.3201ZM117.416 34.8801V39.0401H121.576V40.5121H117.416V51.1041C117.416 53.0561 118.152 53.8881 119.656 53.8881C120.552 53.8881 121.256 53.6001 122.056 52.9921L122.44 53.5681C121.416 55.1681 119.816 56.3201 117.512 56.3201C114.888 56.3201 112.968 54.9441 112.968 51.3601V40.5121H110.984V39.7761C113.192 38.7841 115.08 36.9921 116.456 34.8801H117.416ZM131.859 55.1681C134.227 55.1681 135.283 52.4481 135.283 48.2561C135.283 43.5201 134.195 39.9041 131.635 39.9041C129.267 39.9041 128.179 42.5921 128.179 46.7841C128.179 51.5201 129.299 55.1681 131.859 55.1681ZM131.699 56.3201C126.803 56.3201 123.475 52.9921 123.475 47.9041C123.475 42.4641 127.027 38.7201 131.795 38.7201C136.691 38.7201 140.019 42.1121 140.019 47.1681C140.019 52.6081 136.467 56.3201 131.699 56.3201ZM148.133 44.4481V53.2801C148.133 54.5921 148.869 54.7841 150.853 54.9441V56.0001H141.701V54.9441C143.205 54.8481 143.717 54.6561 143.717 53.5361V42.2081L141.797 41.0881V40.4801L147.525 38.7201H148.261L148.133 43.4561C149.669 39.9681 150.629 38.7201 152.517 38.7201C153.189 38.7201 153.669 38.9441 153.925 39.2641V42.7201H153.317C151.333 42.7201 149.765 42.8161 148.133 44.4481ZM163.145 38.7201C167.433 38.7201 169.673 41.5681 169.673 45.4081V46.1441H159.241C159.113 50.6241 161.417 53.2801 164.553 53.2801C166.729 53.2801 168.169 52.3521 169.321 50.6881L169.833 50.9761C169.001 54.1441 166.665 56.3201 162.985 56.3201C158.345 56.3201 155.241 52.8961 155.241 47.9681C155.241 42.4961 158.761 38.7201 163.145 38.7201ZM162.825 39.9041C160.713 39.9041 159.561 42.0161 159.305 44.9601H165.705C165.705 41.9521 164.905 39.9041 162.825 39.9041Z"></path>
</svg>
