<svg xmlns="http://www.w3.org/2000/svg" fill="none" viewBox="0 0 60 60" height="60" width="60">
<circle fill="#FAC828" r="30" cy="30" cx="30"></circle>
<path fill="#0D1F22" d="M18.736 33.2V38.416C18.736 40.176 19.632 40.592 22.544 40.752V42H10.864V40.784C13.04 40.528 13.296 40.304 13.296 38.576V22.96C13.296 21.232 13.04 21.008 10.864 20.752V19.536H21.264C27.376 19.536 30.224 22.512 30.224 26.256C30.224 30.544 27.248 33.2 21.104 33.2H18.736ZM18.736 20.912V31.696H19.824C23.152 31.696 24.784 29.648 24.784 26.288C24.784 23.056 22.992 20.912 19.824 20.912H18.736Z"></path>
<path fill="#0D1F22" d="M39.576 42.32C36.44 42.32 33.72 41.392 32.248 40.208L31.96 34.672H33.464C34.232 38.384 36.312 40.912 39.576 40.912C42.008 40.912 43.576 39.664 43.576 37.552C43.576 35.344 42.2 34.384 38.488 33.136C34.488 31.856 32.12 29.968 32.12 26.128C32.12 21.968 35.288 19.216 39.864 19.216C42.68 19.216 45.08 19.952 46.68 21.104V25.936H45.336C44.664 22.608 42.904 20.624 39.864 20.624C37.752 20.624 36.376 21.872 36.376 23.792C36.376 25.968 37.656 26.832 41.016 27.984C45.304 29.424 47.992 31.088 47.992 35.344C47.992 40.048 44.184 42.32 39.576 42.32Z"></path>
</svg>
